Patient4_TMGait_0pt7_01_left_25_GRF.mot
version=1
nRows=78
nColumns=19
inDegrees=no
endheader
time	F1x	F1y	F1z	M1x	M1y	M1z	F2x	F2y	F2z	M2x	M2y	M2z	EC1x	EC1y	EC1z	EC2x	EC2y	EC2z
28.79	-4.1102	8.9372	-7.8347	0.78263	1.4421	8.7077	-39.8852	714.3695	-109.2551	262.905	126.0801	796.6083	-0.0592	0.0182	-0.0073	-0.0462	0.0165	0.9585
28.8016	-2.9347	7.1389	-5.302	0.17185	0.85682	7.1582	-32.0619	722.7812	-100.0019	262.4306	116.3646	803.1952	-0.0592	0.0182	-0.0073	-0.0462	0.0165	0.9585
28.8131	-1.9139	5.6025	-3.1197	-0.35699	0.35052	5.8285	-25.2227	730.7378	-91.8932	262.308	107.6494	808.5086	-0.0592	0.0182	-0.0073	-0.0462	0.0165	0.9585
28.8247	-1.112	4.4306	-1.4368	-0.77249	-0.038411	4.8138	-19.7744	738.0623	-85.4331	262.6435	100.4676	812.4646	-0.0592	0.0182	-0.0073	-0.0462	0.0165	0.9585
28.8363	-0.55769	3.6449	-0.25182	-1.0775	-0.31912	4.1321	-15.7554	744.7518	-80.6957	263.4271	94.9321	815.2208	-0.0592	0.0182	-0.0073	-0.0462	0.0165	0.9585
28.8479	-0.22353	3.1882	0.50569	-1.2841	-0.50847	3.7279	-12.9458	750.7595	-77.457	264.5411	90.8467	816.8741	-0.0592	0.0182	-0.0073	-0.0462	0.0165	0.9585
28.8594	-0.079656	2.9718	0.9301	-1.4076	-0.62864	3.532	-10.983	755.9334	-75.3843	265.7934	87.8808	817.3925	-0.0592	0.0182	-0.0073	-0.0462	0.0165	0.9585
28.871	-0.079169	2.8894	1.1283	-1.4603	-0.71318	3.4351	-9.4903	759.961	-74.0869	266.9414	85.6357	816.5429	-0.0592	0.0182	-0.0073	-0.0462	0.0165	0.9585
28.8826	-0.19022	2.8087	1.1828	-1.4398	-0.78493	3.3163	-8.1329	762.4484	-73.231	267.7308	83.7619	813.9814	-0.0592	0.0182	-0.0073	-0.0462	0.0165	0.9585
28.8941	-0.36684	2.5935	1.1601	-1.3305	-0.85779	3.0326	-6.6624	763.0012	-72.5386	267.9347	81.9695	809.3521	-0.0592	0.0182	-0.0073	-0.0462	0.0165	0.9585
28.9057	-0.59006	2.1043	1.1126	-1.1045	-0.94953	2.4369	-4.9126	761.3156	-71.837	267.3866	80.0744	802.3789	-0.0592	0.0182	-0.0073	-0.0462	0.0165	0.9585
28.9173	-0.82157	1.2091	1.0632	-0.72902	-1.0518	1.372	-2.7726	757.3362	-71.0456	266.0265	77.9824	793.0129	-0.0592	0.0182	-0.0073	-0.0462	0.0165	0.9585
28.9289	-1.0381	-0.18949	1.0266	-0.17602	-1.158	-0.2781	-0.19448	751.222	-70.1567	263.8894	75.6767	781.4244	-0.0592	0.0182	-0.0073	-0.0462	0.0165	0.9585
28.9404	-1.1868	-2.1605	0.99648	0.57284	-1.2347	-2.6121	2.8177	743.3915	-69.2193	261.1094	73.2035	768.0742	-0.0592	0.0182	-0.0073	-0.0462	0.0165	0.9585
28.952	-1.1867	-4.6385	0.95245	1.4935	-1.229	-5.5647	6.2171	734.394	-68.303	257.8728	70.6408	753.5507	-0.0592	0.0182	-0.0073	-0.0462	0.0165	0.9585
28.9636	-0.91149	-7.3934	0.86755	2.5009	-1.0619	-8.8823	9.9102	724.7855	-67.4974	254.3724	68.0942	738.4598	-0.0592	0.0182	-0.0073	-0.0462	0.0165	0.9585
28.9751	-0.19908	-9.9095	0.69305	3.4067	-0.61606	-11.9514	13.8277	715.0672	-66.8927	250.7833	65.6611	723.3384	-0.0592	0.0182	-0.0073	-0.0462	0.0165	0.9585
28.9867	1.1542	-11.3126	0.38393	3.8922	0.24269	-13.7211	17.8388	705.6527	-66.5783	247.2512	63.4495	708.6337	-0.0592	0.0182	-0.0073	-0.0462	0.0165	0.9585
28.9983	3.346	-10.2402	-0.13869	3.4597	1.6764	-12.5511	21.8481	696.9376	-66.6106	243.9182	61.5314	694.7668	-0.0592	0.0182	-0.0073	-0.0462	0.0165	0.9585
29.0099	6.5306	-4.8311	-0.9237	1.4283	3.8056	-6.2	25.7413	689.2919	-67.0281	240.9207	59.9786	682.1413	-0.0592	0.0182	-0.0073	-0.0462	0.0165	0.9585
29.0214	10.7279	7.2426	-2.0169	-3.0514	6.6888	8.1738	29.4173	682.9247	-67.7801	238.347	58.7839	670.9937	-0.0592	0.0182	-0.0073	-0.0462	0.0165	0.9585
29.033	15.7203	28.5372	-3.3918	-10.9038	10.2121	33.6915	32.7627	677.7307	-68.7504	236.1745	57.8853	661.2815	-0.0592	0.0182	-0.0073	-0.0462	0.0165	0.9585
29.0446	20.8783	61.4143	-4.9459	-22.9666	14.003	73.2639	35.6756	673.0904	-69.7073	234.2084	57.1041	652.4547	-0.0592	0.0182	-0.0073	-0.0462	0.0165	0.9585
29.0561	24.9916	107.207	-6.4084	-39.6893	17.2737	128.5676	38.0545	667.8515	-70.3528	232.0663	56.2016	643.4717	-0.0592	0.0182	-0.0073	-0.0462	0.0165	0.9585
29.0677	26.0881	165.0341	-7.2986	-60.7028	18.6978	198.6402	39.8325	660.3859	-70.3366	229.201	54.8932	632.8474	-0.0592	0.0182	-0.0073	-0.0462	0.0165	0.9585
29.0793	21.9781	230.9732	-6.7909	-84.5262	16.5103	278.8589	40.9567	648.8195	-69.3209	224.9822	52.9114	618.8663	-0.0592	0.0182	-0.0073	-0.0462	0.0165	0.9585
29.0909	12.6613	299.3402	-3.9503	-109.0166	9.6037	362.4121	41.4549	631.4626	-67.0437	218.8405	50.0367	599.9455	-0.0592	0.0182	-0.0073	-0.0462	0.0165	0.9585
29.1024	0.42162	363.5476	1.7873	-131.7499	-1.8557	441.0446	41.396	607.1581	-63.3797	210.3814	46.1551	574.9766	-0.0592	0.0182	-0.0073	-0.0462	0.0165	0.9585
29.114	-12.1903	417.1544	10.097	-150.4815	-16.4572	506.4606	40.8882	575.2745	-58.4638	199.3825	41.375	543.3108	-0.0592	0.0182	-0.0073	-0.0462	0.0165	0.9585
29.1256	-23.1608	458.0028	19.5991	-164.5398	-31.7721	555.6149	40.0119	535.7945	-52.5954	185.8151	35.9553	504.8687	-0.0592	0.0182	-0.0073	-0.0462	0.0165	0.9585
29.1371	-32.0397	488.9293	28.7734	-175.0368	-45.787	591.8567	38.7658	489.3351	-46.1739	169.8548	30.257	460.1793	-0.0592	0.0182	-0.0073	-0.0462	0.0165	0.9585
29.1487	-38.8431	514.916	36.7736	-183.825	-57.5296	621.2353	37.1178	437.0681	-39.6206	151.8665	24.6578	410.3046	-0.0592	0.0182	-0.0073	-0.0462	0.0165	0.9585
29.1603	-43.9463	540.2391	43.1446	-192.4722	-66.6071	649.0795	34.9543	380.5662	-33.2344	132.3686	19.4415	356.7013	-0.0592	0.0182	-0.0073	-0.0462	0.0165	0.9585
29.1719	-47.3626	567.1911	47.8476	-201.805	-73.0379	678.0894	32.083	321.7591	-27.1711	112.0212	14.7897	301.1721	-0.0592	0.0182	-0.0073	-0.0462	0.0165	0.9585
29.1834	-49.1396	596.3001	51.3977	-211.9612	-77.4488	708.9757	28.3575	262.9124	-21.5436	91.612	10.8357	245.8344	-0.0592	0.0182	-0.0073	-0.0462	0.0165	0.9585
29.195	-49.2261	626.9231	54.2996	-222.6596	-80.4741	740.9583	23.793	206.5324	-16.4634	72.0181	7.6623	193.0126	-0.0592	0.0182	-0.0073	-0.0462	0.0165	0.9585
29.2066	-47.8919	657.9497	57.2335	-233.4259	-82.9907	772.8893	18.7062	155.0647	-12.0833	54.097	5.2947	144.9473	-0.0592	0.0182	-0.0073	-0.0462	0.0165	0.9585
29.2181	-45.4023	687.8818	60.4817	-243.6839	-85.4668	803.122	13.6322	110.4101	-8.4628	38.5248	3.6105	103.3386	-0.0592	0.0182	-0.0073	-0.0462	0.0165	0.9585
29.2297	-42.3559	715.1297	64.3068	-252.8263	-88.3824	829.9897	9.1035	73.6075	-5.6217	25.6775	2.4581	69.081	-0.0592	0.0182	-0.0073	-0.0462	0.0165	0.9585
29.2413	-39.1005	738.2906	68.6155	-260.3588	-91.7539	851.9543	5.4119	44.8793	-3.4727	15.6457	1.6664	42.3387	-0.0592	0.0182	-0.0073	-0.0462	0.0165	0.9585
29.2529	-35.9082	756.7315	73.0302	-266.0727	-95.2412	868.4188	2.6157	23.7984	-1.9146	8.2889	1.1295	22.6961	-0.0592	0.0182	-0.0073	-0.0462	0.0165	0.9585
29.2644	-32.7909	770.3715	77.0537	-269.9818	-98.2889	879.3037	0.65622	9.5048	-0.86484	3.3059	0.79541	9.3584	-0.0592	0.0182	-0.0073	-0.0462	0.0165	0.9585
29.276	-29.8133	779.3758	80.2008	-272.1831	-100.3814	884.9008	-0.58011	0.80213	-0.22661	0.27769	0.61337	1.2132	-0.0592	0.0182	-0.0073	-0.0462	0.0165	0.9585
29.2876	-26.9587	783.8699	82.3959	-272.748	-101.4161	885.4006	-1.2611	-3.6768	0.084732	-1.276	0.55284	-3.0003	-0.0592	0.0182	-0.0073	-0.0462	0.0165	0.9585
29.2991	-24.2892	784.0197	83.6995	-271.7506	-101.4762	881.0907	-1.548	-5.2613	0.18313	-1.8198	0.55316	-4.5117	-0.0592	0.0182	-0.0073	-0.0462	0.0165	0.9585
29.3107	-21.7129	780.1655	84.4096	-269.3146	-100.853	872.4113	-1.589	-5.0691	0.14127	-1.7459	0.59622	-4.354	-0.0592	0.0182	-0.0073	-0.0462	0.0165	0.9585
29.3223	-19.2563	772.9272	84.6631	-265.6638	-99.7139	860.1157	-1.485	-3.9482	0.043535	-1.3492	0.63828	-3.3234	-0.0592	0.0182	-0.0073	-0.0462	0.0165	0.9585
29.3339	-16.8691	763.1811	84.5755	-261.1163	-98.1821	845.1816	-1.3249	-2.4776	-0.081254	-0.83247	0.68409	-1.9547	-0.0592	0.0182	-0.0073	-0.0462	0.0165	0.9585
29.3454	-14.568	752.0679	84.1582	-256.0782	-96.2972	828.907	-1.1536	-1.0233	-0.1925	-0.32248	0.71438	-0.59262	-0.0592	0.0182	-0.0073	-0.0462	0.0165	0.9585
29.357	-12.3567	740.6994	83.4106	-250.9537	-94.0875	812.5008	-1.0058	0.23339	-0.27817	0.11464	0.73388	0.60219	-0.0592	0.0182	-0.0073	-0.0462	0.0165	0.9585
29.3686	-10.2753	730.108	82.389	-246.1087	-91.6413	797.0989	-0.89033	1.2256	-0.32641	0.45428	0.73739	1.5612	-0.0592	0.0182	-0.0073	-0.0462	0.0165	0.9585
29.3801	-8.3148	721.0199	81.1524	-241.8082	-89.0302	783.4491	-0.81295	1.9477	-0.33955	0.69567	0.72927	2.2885	-0.0592	0.0182	-0.0073	-0.0462	0.0165	0.9585
29.3917	-6.5276	713.8814	79.8105	-238.2157	-86.3833	772.0065	-0.7586	2.4446	-0.32635	0.85604	0.70844	2.8211	-0.0592	0.0182	-0.0073	-0.0462	0.0165	0.9585
29.4033	-4.8938	708.8422	78.4132	-235.397	-83.7495	762.8832	-0.73104	2.7675	-0.29651	0.95468	0.67642	3.1956	-0.0592	0.0182	-0.0073	-0.0462	0.0165	0.9585
29.4149	-3.41	705.8117	77.0219	-233.334	-81.1933	755.9426	-0.71196	2.9679	-0.26326	1.0109	0.64277	3.4402	-0.0592	0.0182	-0.0073	-0.0462	0.0165	0.9585
29.4264	-2.0441	704.5035	75.6332	-231.943	-78.7006	750.7964	-0.70459	3.0982	-0.23684	1.0443	0.62061	3.5971	-0.0592	0.0182	-0.0073	-0.0462	0.0165	0.9585
29.438	-0.73459	704.5055	74.2519	-231.0902	-76.2572	746.9643	-0.71479	3.1712	-0.23195	1.0627	0.62735	3.6729	-0.0592	0.0182	-0.0073	-0.0462	0.0165	0.9585
29.4496	0.58566	705.3606	72.8645	-230.6254	-73.8242	743.9036	-0.75338	3.1808	-0.25614	1.0666	0.67441	3.6661	-0.0592	0.0182	-0.0073	-0.0462	0.0165	0.9585
29.4611	2.0032	706.6848	71.4631	-230.414	-71.3679	741.1698	-0.83259	3.0873	-0.32049	1.0425	0.77899	3.532	-0.0592	0.0182	-0.0073	-0.0462	0.0165	0.9585
29.4727	3.6246	708.2266	70.0752	-230.3608	-68.8804	738.4698	-0.96398	2.8437	-0.42794	0.97008	0.9489	3.213	-0.0592	0.0182	-0.0073	-0.0462	0.0165	0.9585
29.4843	5.5481	709.9321	68.7245	-230.4319	-66.3573	735.7258	-1.1448	2.3869	-0.58816	0.82063	1.1918	2.6336	-0.0592	0.0182	-0.0073	-0.0462	0.0165	0.9585
29.4959	7.8668	711.9456	67.5123	-230.6552	-63.8684	733.084	-1.3706	1.6523	-0.79913	0.56461	1.5033	1.7166	-0.0592	0.0182	-0.0073	-0.0462	0.0165	0.9585
29.5074	10.6834	714.6034	66.5076	-231.1247	-61.4531	730.8819	-1.6156	0.57692	-1.0448	0.17521	1.8593	0.37674	-0.0592	0.0182	-0.0073	-0.0462	0.0165	0.9585
29.519	14.0447	718.3443	65.8693	-231.968	-59.2435	729.5669	-1.8287	-0.88457	-1.3006	-0.366	2.2169	-1.4357	-0.0592	0.0182	-0.0073	-0.0462	0.0165	0.9585
29.5306	17.9897	723.6183	65.6782	-233.3221	-57.3003	729.5986	-1.9314	-2.7191	-1.5183	-1.0538	2.4913	-3.7023	-0.0592	0.0182	-0.0073	-0.0462	0.0165	0.9585
29.5421	22.451	730.7613	66.0609	-235.2857	-55.7538	731.3461	-1.7973	-4.8039	-1.6289	-1.8387	2.5488	-6.2741	-0.0592	0.0182	-0.0073	-0.0462	0.0165	0.9585
29.5537	27.2835	739.8569	67.0289	-237.8799	-54.6438	734.9288	-1.2688	-6.8421	-1.5282	-2.6021	2.2015	-8.7876	-0.0592	0.0182	-0.0073	-0.0462	0.0165	0.9585
29.5653	32.265	750.6223	68.5805	-241.0048	-54.0215	740.1321	-0.1492	-8.2849	-1.0725	-3.1279	1.1988	-10.5895	-0.0592	0.0182	-0.0073	-0.0462	0.0165	0.9585
29.5769	37.1179	762.3777	70.6216	-244.4395	-53.8735	746.3327	1.7587	-8.2497	-0.084877	-3.0744	-0.7531	-10.5993	-0.0592	0.0182	-0.0073	-0.0462	0.0165	0.9585
29.5884	41.5506	774.1635	73.0141	-247.8775	-54.1593	752.6561	4.6333	-5.4775	1.6347	-1.9558	-3.961	-7.258	-0.0592	0.0182	-0.0073	-0.0462	0.0165	0.9585
29.6	45.3503	784.8943	75.5824	-250.9808	-54.786	758.1046	8.5385	1.6838	4.2607	0.85845	-8.6519	1.4879	-0.0592	0.0182	-0.0073	-0.0462	0.0165	0.9585
29.6116	48.4011	793.4734	78.0715	-253.4114	-55.5635	761.6635	13.3414	15.1435	7.8864	6.0895	-14.8718	18.0071	-0.0592	0.0182	-0.0073	-0.0462	0.0165	0.9585
29.6231	50.7614	798.7628	80.2418	-254.8226	-56.2685	762.2738	18.5581	36.8139	12.4316	14.4457	-22.312	44.6842	-0.0592	0.0182	-0.0073	-0.0462	0.0165	0.9585
29.6347	52.601	799.5362	81.7622	-254.8431	-56.5623	758.8136	23.1783	68.0744	17.4903	26.419	-30.0668	83.2519	-0.0592	0.0182	-0.0073	-0.0462	0.0165	0.9585
29.6463	54.1191	794.3787	82.3518	-253.0381	-56.1494	749.9956	25.4928	109.01	22.1796	41.9926	-36.3885	133.858	-0.0592	0.0182	-0.0073	-0.0462	0.0165	0.9585
29.6579	55.4572	781.7431	81.6694	-248.9285	-54.7017	734.4463	23.3588	157.7458	25.0628	60.3793	-38.7439	194.2557	-0.0592	0.0182	-0.0073	-0.0462	0.0165	0.9585
29.6694	56.6356	760.0764	79.4426	-242.0298	-51.9923	710.7961	15.5298	210.3302	24.5558	79.9969	-34.7501	259.5932	-0.0592	0.0182	-0.0073	-0.0462	0.0165	0.9585
29.681	57.4879	728.1313	75.4418	-231.9477	-47.8943	677.9984	3.5037	261.6827	19.54	98.8836	-23.7441	323.4849	-0.0592	0.0182	-0.0073	-0.0462	0.0165	0.9585
